<?xml version="1.0" encoding="UTF-8" standalone="no"?>
<!-- Created with Inkscape (http://www.inkscape.org/) -->

<svg
   width="512"
   height="512"
   viewBox="0 0 135.46667 135.46667"
   version="1.1"
   id="svg5"
   xml:space="preserve"
   xmlns="http://www.w3.org/2000/svg"
   xmlns:svg="http://www.w3.org/2000/svg"><defs
     id="defs2" /><path
     d="m 67.669571,109.68359 c 0,0 38.110549,0 47.563619,-2.51702 5.32265,-1.42631 9.32554,-5.53743 10.73046,-10.61341 2.59756,-9.31296 2.59756,-28.90373 2.59756,-28.90373 0,0 0,-19.46492 -2.59756,-28.69398 -1.40492,-5.20183 -5.40781,-9.22906 -10.73046,-10.61341 -9.45307,-2.55897 -47.563619,-2.55897 -47.563619,-2.55897 0,0 -38.025522,0 -47.436056,2.55897 -5.237532,1.38435 -9.325383,5.41158 -10.815742,10.61341 -2.512317,9.22906 -2.512317,28.69398 -2.512317,28.69398 0,0 0,19.59077 2.512317,28.90373 1.490359,5.07598 5.57821,9.1871 10.815742,10.61341 9.410534,2.51702 47.436056,2.51702 47.436056,2.51702 z"
     fill="#ff0033"
     id="path1412"
     style="fill:#ffd700;fill-opacity:1;stroke-width:0.0208149"
     clip-path="none" /><path
     d="M 86.610951,67.73333 55.148251,49.90447 V 85.56219 Z"
     fill="#ffffff"
     id="path1414"
     style="fill:#ffa500;fill-opacity:1;stroke-width:0.0208149"
     clip-path="none" /></svg>
